HIERARCHY
ROOT newVegas:Hips
{
	OFFSET 0.000000 96.479958 0.000000
	CHANNELS 6 Xposition Yposition Zposition Xrotation Yrotation Zrotation
	JOINT newVegas:Pelvis
	{
		OFFSET 0.000000 0.000000 0.000000
		CHANNELS 3 Xrotation Yrotation Zrotation
		JOINT newVegas:LeftUpLeg
		{
			OFFSET 18.735201 -5.666702 -4.541200
			CHANNELS 3 Xrotation Yrotation Zrotation
			JOINT newVegas:LeftLeg
			{
				OFFSET -0.021200 -31.938179 0.493100
				CHANNELS 3 Xrotation Yrotation Zrotation
				JOINT newVegas:LeftFoot
				{
					OFFSET 0.021200 -31.938179 -4.336299
					CHANNELS 3 Xrotation Yrotation Zrotation
					JOINT newVegas:LeftToeBase
					{
						OFFSET 0.943001 -26.722000 15.023500
						CHANNELS 3 Xrotation Yrotation Zrotation
						End Site
						{
							OFFSET 0.000000 30.670183 0.000000
						}
					}
				}
				JOINT newVegas:Left_PantLeg
				{
					OFFSET 0.663870 -9.044666 -1.108900
					CHANNELS 3 Xrotation Yrotation Zrotation
					End Site
					{
						OFFSET 1.415995 20.635357 0.000000
					}
				}
			}
		}
		JOINT newVegas:RightUpLeg
		{
			OFFSET -18.735201 -5.666702 -4.541200
			CHANNELS 3 Xrotation Yrotation Zrotation
			JOINT newVegas:RightLeg
			{
				OFFSET 0.018946 -31.938133 0.493100
				CHANNELS 3 Xrotation Yrotation Zrotation
				JOINT newVegas:RightFoot
				{
					OFFSET -0.018946 -31.938126 -4.336299
					CHANNELS 3 Xrotation Yrotation Zrotation
					JOINT newVegas:RightToeBase
					{
						OFFSET -0.943001 -26.722004 15.023500
						CHANNELS 3 Xrotation Yrotation Zrotation
						End Site
						{
							OFFSET 0.000000 30.670187 0.000000
						}
					}
				}
				JOINT newVegas:Right_PantLeg
				{
					OFFSET -0.661674 -9.044716 -1.108900
					CHANNELS 3 Xrotation Yrotation Zrotation
					End Site
					{
						OFFSET -1.415958 20.635269 0.000000
					}
				}
			}
		}
	}
	JOINT newVegas:Spine
	{
		OFFSET 0.000000 10.199997 -0.299500
		CHANNELS 3 Xrotation Yrotation Zrotation
		JOINT newVegas:Spine1
		{
			OFFSET 0.000000 11.900002 -1.516600
			CHANNELS 3 Xrotation Yrotation Zrotation
			JOINT newVegas:Spine2
			{
				OFFSET 0.000000 13.600006 -2.842500
				CHANNELS 3 Xrotation Yrotation Zrotation
				JOINT newVegas:Neck
				{
					OFFSET 0.000000 9.624100 -2.890100
					CHANNELS 3 Xrotation Yrotation Zrotation
					JOINT newVegas:Head
					{
						OFFSET 0.000000 14.068802 -1.351900
						CHANNELS 3 Xrotation Yrotation Zrotation
						JOINT newVegas:Hair_Back
						{
							OFFSET 0.000000 3.231903 -17.524799
							CHANNELS 3 Xrotation Yrotation Zrotation
							End Site
							{
								OFFSET 0.000000 19.849884 0.000000
							}
						}
						JOINT newVegas:Hair_Front
						{
							OFFSET 0.000000 31.260406 4.573800
							CHANNELS 3 Xrotation Yrotation Zrotation
							JOINT newVegas:Hair_Front1
							{
								OFFSET 0.000000 2.284103 11.993300
								CHANNELS 3 Xrotation Yrotation Zrotation
								JOINT newVegas:Hair_Front2
								{
									OFFSET 0.000000 2.284103 11.993300
									CHANNELS 3 Xrotation Yrotation Zrotation
									End Site
									{
										OFFSET 0.000000 12.208862 0.000000
									}
								}
							}
						}
						JOINT newVegas:Jowel
						{
							OFFSET 0.000000 -7.458206 6.864100
							CHANNELS 3 Xrotation Yrotation Zrotation
							End Site
							{
								OFFSET 0.000000 19.849884 0.000000
							}
						}
					}
				}
				JOINT newVegas:LeftShoulder
				{
					OFFSET 15.263000 10.923401 -0.547700
					CHANNELS 3 Xrotation Yrotation Zrotation
					JOINT newVegas:LeftArm
					{
						OFFSET 25.438599 -2.830597 -13.032500
						CHANNELS 3 Xrotation Yrotation Zrotation
						JOINT newVegas:LeftForeArm
						{
							OFFSET 29.960503 0.000000 0.000000
							CHANNELS 3 Xrotation Yrotation Zrotation
							JOINT newVegas:LeftHand
							{
								OFFSET 27.849251 0.000000 0.000000
								CHANNELS 3 Xrotation Yrotation Zrotation
								JOINT newVegas:LeftHandThumb1
								{
									OFFSET 4.487587 -3.305161 6.305391
									CHANNELS 3 Xrotation Yrotation Zrotation
									JOINT newVegas:LeftHandThumb2
									{
										OFFSET 5.480453 -3.164139 3.164143
										CHANNELS 3 Xrotation Yrotation Zrotation
										JOINT newVegas:LeftHandThumb3
										{
											OFFSET 5.159721 -2.978973 2.978967
											CHANNELS 3 Xrotation Yrotation Zrotation
											End Site
											{
												OFFSET 2.494507 5.926697 1.738678
											}
										}
									}
								}
								JOINT newVegas:LeftHandIndex1
								{
									OFFSET 18.578728 -0.527832 5.208049
									CHANNELS 3 Xrotation Yrotation Zrotation
									JOINT newVegas:LeftHandIndex2
									{
										OFFSET 3.192009 0.000000 0.000000
										CHANNELS 3 Xrotation Yrotation Zrotation
										JOINT newVegas:LeftHandIndex3
										{
											OFFSET 3.835129 0.000000 0.000000
											CHANNELS 3 Xrotation Yrotation Zrotation
											End Site
											{
												OFFSET -0.034599 3.816971 0.371180
											}
										}
									}
								}
								JOINT newVegas:LeftHandMiddle1
								{
									OFFSET 18.476105 0.000000 0.000000
									CHANNELS 3 Xrotation Yrotation Zrotation
									JOINT newVegas:LeftHandMiddle2
									{
										OFFSET 3.324875 0.000000 0.000000
										CHANNELS 3 Xrotation Yrotation Zrotation
										JOINT newVegas:LeftHandMiddle3
										{
											OFFSET 4.596550 0.000000 0.000000
											CHANNELS 3 Xrotation Yrotation Zrotation
											End Site
											{
												OFFSET 0.057701 4.578827 0.399218
											}
										}
									}
								}
								JOINT newVegas:LeftHandRing1
								{
									OFFSET 17.732719 0.121887 -4.201567
									CHANNELS 3 Xrotation Yrotation Zrotation
									JOINT newVegas:LeftHandRing2
									{
										OFFSET 2.733170 0.000000 0.000000
										CHANNELS 3 Xrotation Yrotation Zrotation
										JOINT newVegas:LeftHandRing3
										{
											OFFSET 3.178268 0.000000 0.000000
											CHANNELS 3 Xrotation Yrotation Zrotation
											End Site
											{
												OFFSET 0.119102 3.170624 0.185394
											}
										}
									}
								}
								JOINT newVegas:LeftHandPinky1
								{
									OFFSET 15.989624 -0.606689 -7.535461
									CHANNELS 3 Xrotation Yrotation Zrotation
									JOINT newVegas:LeftHandPinky2
									{
										OFFSET 2.538986 0.000000 0.000000
										CHANNELS 3 Xrotation Yrotation Zrotation
										JOINT newVegas:LeftHandPinky3
										{
											OFFSET 2.593102 0.000000 0.000000
											CHANNELS 3 Xrotation Yrotation Zrotation
											End Site
											{
												OFFSET -0.150902 2.584198 0.152708
											}
										}
									}
								}
							}
							JOINT newVegas:Left_Sleeve
							{
								OFFSET 0.267448 -0.649796 0.577675
								CHANNELS 3 Xrotation Yrotation Zrotation
								End Site
								{
									OFFSET 0.000000 15.991241 0.000000
								}
							}
							JOINT newVegas:Left_CapeC
							{
								OFFSET 15.715958 -8.608795 -6.935905
								CHANNELS 3 Xrotation Yrotation Zrotation
								JOINT newVegas:Left_CapeC1
								{
									OFFSET 0.000000 -8.688499 0.000000
									CHANNELS 3 Xrotation Yrotation Zrotation
									End Site
									{
										OFFSET 0.000000 8.688499 0.000000
									}
								}
							}
						}
						JOINT newVegas:Left_CapeB
						{
							OFFSET 26.118385 -8.608795 -7.079235
							CHANNELS 3 Xrotation Yrotation Zrotation
							JOINT newVegas:Left_CapeB1
							{
								OFFSET 0.000000 -8.688499 0.000000
								CHANNELS 3 Xrotation Yrotation Zrotation
								End Site
								{
									OFFSET 0.000000 8.688499 0.000000
								}
							}
						}
						JOINT newVegas:Left_CapeA
						{
							OFFSET 5.115639 -8.608795 -10.395809
							CHANNELS 3 Xrotation Yrotation Zrotation
							JOINT newVegas:Left_CapeA1
							{
								OFFSET 0.000000 -8.688499 0.000000
								CHANNELS 3 Xrotation Yrotation Zrotation
								End Site
								{
									OFFSET 0.000000 8.688499 0.000000
								}
							}
						}
					}
				}
				JOINT newVegas:RightShoulder
				{
					OFFSET -15.263000 10.923401 -0.547700
					CHANNELS 3 Xrotation Yrotation Zrotation
					JOINT newVegas:RightArm
					{
						OFFSET -25.438599 -2.830597 -13.032500
						CHANNELS 3 Xrotation Yrotation Zrotation
						JOINT newVegas:RightForeArm
						{
							OFFSET -29.960503 0.000000 0.000000
							CHANNELS 3 Xrotation Yrotation Zrotation
							JOINT newVegas:RightHand
							{
								OFFSET -27.849251 0.000000 0.000000
								CHANNELS 3 Xrotation Yrotation Zrotation
								JOINT newVegas:RightHandThumb1
								{
									OFFSET -4.487587 -3.305161 6.305391
									CHANNELS 3 Xrotation Yrotation Zrotation
									JOINT newVegas:RightHandThumb2
									{
										OFFSET -5.480453 -3.164139 3.164143
										CHANNELS 3 Xrotation Yrotation Zrotation
										JOINT newVegas:RightHandThumb3
										{
											OFFSET -5.159721 -2.978973 2.978967
											CHANNELS 3 Xrotation Yrotation Zrotation
											End Site
											{
												OFFSET -2.494507 5.926697 1.738678
											}
										}
									}
								}
								JOINT newVegas:RightHandIndex1
								{
									OFFSET -18.578728 -0.527832 5.208049
									CHANNELS 3 Xrotation Yrotation Zrotation
									JOINT newVegas:RightHandIndex2
									{
										OFFSET -3.192009 0.000000 0.000000
										CHANNELS 3 Xrotation Yrotation Zrotation
										JOINT newVegas:RightHandIndex3
										{
											OFFSET -3.835129 0.000000 0.000000
											CHANNELS 3 Xrotation Yrotation Zrotation
											End Site
											{
												OFFSET 0.034599 3.816971 0.371180
											}
										}
									}
								}
								JOINT newVegas:RightHandMiddle1
								{
									OFFSET -18.476105 0.000000 0.000000
									CHANNELS 3 Xrotation Yrotation Zrotation
									JOINT newVegas:RightHandMiddle2
									{
										OFFSET -3.324875 0.000000 0.000000
										CHANNELS 3 Xrotation Yrotation Zrotation
										JOINT newVegas:RightHandMiddle3
										{
											OFFSET -4.596550 0.000000 0.000000
											CHANNELS 3 Xrotation Yrotation Zrotation
											End Site
											{
												OFFSET -0.057701 4.578827 0.399218
											}
										}
									}
								}
								JOINT newVegas:RightHandRing1
								{
									OFFSET -17.732719 0.121887 -4.201567
									CHANNELS 3 Xrotation Yrotation Zrotation
									JOINT newVegas:RightHandRing2
									{
										OFFSET -2.733170 0.000000 0.000000
										CHANNELS 3 Xrotation Yrotation Zrotation
										JOINT newVegas:RightHandRing3
										{
											OFFSET -3.178268 0.000000 0.000000
											CHANNELS 3 Xrotation Yrotation Zrotation
											End Site
											{
												OFFSET -0.119102 3.170624 0.185394
											}
										}
									}
								}
								JOINT newVegas:RightHandPinky1
								{
									OFFSET -15.989624 -0.606689 -7.535461
									CHANNELS 3 Xrotation Yrotation Zrotation
									JOINT newVegas:RightHandPinky2
									{
										OFFSET -2.538986 0.000000 0.000000
										CHANNELS 3 Xrotation Yrotation Zrotation
										JOINT newVegas:RightHandPinky3
										{
											OFFSET -2.593102 0.000000 0.000000
											CHANNELS 3 Xrotation Yrotation Zrotation
											End Site
											{
												OFFSET 0.150902 2.584198 0.152708
											}
										}
									}
								}
							}
							JOINT newVegas:Right_CapeC
							{
								OFFSET -15.715958 -8.608795 -6.935905
								CHANNELS 3 Xrotation Yrotation Zrotation
								JOINT newVegas:Right_CapeC1
								{
									OFFSET 0.000000 -8.688499 0.000000
									CHANNELS 3 Xrotation Yrotation Zrotation
									End Site
									{
										OFFSET 0.000000 8.688499 0.000000
									}
								}
							}
							JOINT newVegas:Right_Sleeve
							{
								OFFSET -0.267448 -0.649994 0.577675
								CHANNELS 3 Xrotation Yrotation Zrotation
								End Site
								{
									OFFSET 0.000000 15.991302 0.000000
								}
							}
						}
						JOINT newVegas:Right_CapeA
						{
							OFFSET -5.115540 -8.608795 -10.395824
							CHANNELS 3 Xrotation Yrotation Zrotation
							JOINT newVegas:Right_CapeA1
							{
								OFFSET 0.000000 -8.688499 0.000000
								CHANNELS 3 Xrotation Yrotation Zrotation
								End Site
								{
									OFFSET 0.000000 8.688499 0.000000
								}
							}
						}
						JOINT newVegas:Right_CapeB
						{
							OFFSET -26.118187 -8.608795 -7.079266
							CHANNELS 3 Xrotation Yrotation Zrotation
							JOINT newVegas:Right_CapeB1
							{
								OFFSET 0.000000 -8.688499 0.000000
								CHANNELS 3 Xrotation Yrotation Zrotation
								End Site
								{
									OFFSET 0.000000 8.688499 0.000000
								}
							}
						}
					}
				}
				JOINT newVegas:Left_Collar
				{
					OFFSET 18.625099 8.655502 8.828100
					CHANNELS 3 Xrotation Yrotation Zrotation
					JOINT newVegas:Left_Collar1
					{
						OFFSET 14.783401 10.540405 -1.259500
						CHANNELS 3 Xrotation Yrotation Zrotation
						End Site
						{
							OFFSET 0.000000 18.199875 0.000000
						}
					}
				}
				JOINT newVegas:Collar_Back
				{
					OFFSET 0.000000 15.630707 -20.132601
					CHANNELS 3 Xrotation Yrotation Zrotation
					End Site
					{
						OFFSET 0.000000 22.523010 0.000000
					}
				}
				JOINT newVegas:Left_Peck
				{
					OFFSET 17.239599 -5.132599 25.482599
					CHANNELS 3 Xrotation Yrotation Zrotation
					End Site
					{
						OFFSET 0.000000 22.523010 0.000000
					}
				}
				JOINT newVegas:Right_Peck
				{
					OFFSET -17.239599 -5.132202 25.482599
					CHANNELS 3 Xrotation Yrotation Zrotation
					End Site
					{
						OFFSET 0.000000 22.523010 0.000000
					}
				}
				JOINT newVegas:Right_Collar
				{
					OFFSET -18.625099 8.655792 8.828100
					CHANNELS 3 Xrotation Yrotation Zrotation
					JOINT newVegas:Right_Collar1
					{
						OFFSET -14.783401 10.539993 -1.259500
						CHANNELS 3 Xrotation Yrotation Zrotation
						End Site
						{
							OFFSET 0.000000 18.199631 0.000000
						}
					}
				}
			}
		}
		JOINT newVegas:Belly
		{
			OFFSET 0.000000 -6.540398 9.014299
			CHANNELS 3 Xrotation Yrotation Zrotation
			End Site
			{
				OFFSET 0.000000 11.566666 0.000000
			}
		}
	}
	JOINT newVegas:ElvisFacialAnim_Joint
	{
		OFFSET 1.000000 -95.330101 -8.825800
		CHANNELS 3 Xrotation Yrotation Zrotation
		End Site
		{
			OFFSET 0.000000 35.315800 0.000000
		}
	}
}
MOTION
Frames: 4
Frame Time: 0.033333
6.008893 112.331039 6.801170 -103.651222 23.118877 4.575589 0.000001 -0.000001 0.000000 -36.067340 26.647505 50.580092 46.158938 -1.444712 -8.771968 44.664410 -6.921081 -28.349463 -0.000003 0.000000 -0.000000 -0.000000 -0.000000 0.000000 -42.870830 -5.498126 -16.235337 101.003997 -0.444077 0.771028 9.795819 -6.307127 14.651567 -0.000000 -0.000000 0.000001 0.000000 0.000000 -0.000001 7.420478 -0.576457 0.756002 14.756977 -1.042051 -5.326549 14.801138 -0.492785 -5.242173 2.259628 2.866505 -5.041669 2.259666 2.866496 -5.041644 -0.000000 -0.000001 -0.000001 2.259595 2.866568 -5.041682 2.259695 2.866428 -5.041652 0.000003 -0.000001 0.000002 -0.000000 -0.000001 -0.000000 2.996088 -17.033612 0.999676 49.454244 -25.754736 -8.220877 0.000315 -97.619345 0.000299 -29.113975 -14.963034 33.759002 9.231117 -1.034979 13.937382 7.178855 21.567342 2.147299 0.000001 -0.000002 -0.000003 0.942372 5.509789 -25.984364 0.169786 1.401613 -13.813545 -0.000003 -0.000000 -0.000001 1.426434 6.515823 -25.680347 0.169883 1.401953 -13.817112 0.000000 0.000001 0.000001 1.891064 7.774196 -23.318944 0.169794 1.401604 -13.813543 0.000003 -0.000000 -0.000003 1.823964 9.468013 -16.004872 0.167500 1.392243 -13.719351 0.000002 0.000000 -0.000003 0.000001 -0.000002 0.000001 0.000001 -0.000002 0.000001 0.000001 -0.000002 0.000002 -0.000000 0.000000 0.000001 -0.000000 -0.000001 0.000002 -0.000000 0.000000 0.000001 -0.000000 -0.000000 0.000001 0.810584 1.861032 13.905467 11.121743 21.582522 65.712690 0.000290 105.192747 -0.000283 -14.527174 -5.172025 28.728066 -12.113366 5.180311 -1.130064 7.918249 -27.751670 -3.100783 -0.000000 -0.000002 -0.000001 3.642157 10.738610 36.798952 0.497050 -2.095302 26.687149 -0.000000 -0.000000 0.000001 -4.321319 1.650219 38.533486 0.529965 -2.159506 27.573965 0.000001 0.000001 -0.000002 -2.086458 -0.915042 36.495818 0.256003 -1.524309 19.066128 0.000001 -0.000001 0.000003 -0.882292 -1.559346 26.944360 0.166056 -1.233731 15.329538 -0.000001 -0.000002 -0.000001 0.000001 0.000003 0.000005 -0.000000 0.000002 0.000006 0.000001 0.000002 0.000004 -0.000000 -0.000001 -0.000002 -0.000000 0.000000 -0.000000 -0.000000 -0.000001 -0.000002 -0.000000 -0.000000 -0.000000 -0.000000 -0.000001 -0.000000 -0.000000 -0.000001 -0.000000 -0.000000 -0.000001 -0.000000 -0.000000 -0.000001 -0.000000 -0.000000 -0.000001 -0.000000 -0.000000 -0.000001 -0.000000 -0.000000 -0.000001 -0.000000 -0.000000 0.000001 -0.000000 0.000001 -0.000001 0.000000 
5.930422 112.499352 6.229576 -104.161922 23.624289 5.323278 -0.000001 0.000001 0.000000 -31.986548 27.305298 46.556694 40.266038 -1.479885 -8.723682 42.914581 -3.087977 -28.406439 -0.000001 -0.000000 -0.000000 0.000000 -0.000001 -0.000000 -42.336945 -6.468845 -17.993978 100.654114 -0.579580 0.959772 10.397472 -5.149217 13.800460 -0.000004 0.000001 -0.000000 0.000003 0.000000 -0.000001 7.184192 -0.766668 0.294429 14.277138 -1.331818 -5.125645 14.323742 -0.785937 -5.045676 2.054697 2.836376 -5.134567 2.054700 2.836380 -5.134587 -0.000000 0.000001 -0.000001 2.054701 2.836373 -5.134558 2.054691 2.836374 -5.134569 -0.000002 -0.000001 -0.000001 -0.000000 0.000001 -0.000001 3.122488 -17.868265 0.737615 50.897812 -24.963573 -8.390728 -0.000344 -97.872328 -0.000346 -29.270045 -14.696600 35.135186 8.816343 -1.650859 14.304866 7.178849 21.567340 2.147301 0.000000 -0.000002 -0.000003 0.897597 5.418350 -25.990533 0.169785 1.401612 -13.813544 -0.000000 -0.000003 0.000000 1.418540 6.507337 -25.571701 0.169880 1.401956 -13.817111 -0.000003 0.000001 0.000003 1.928668 7.910822 -22.985601 0.169793 1.401598 -13.813544 0.000001 0.000001 -0.000001 1.864077 9.671067 -15.815978 0.167499 1.392245 -13.719354 0.000000 -0.000005 0.000000 0.000001 0.000000 0.000001 0.000001 0.000000 0.000001 0.000001 0.000000 0.000001 -0.000002 0.000002 0.000001 -0.000002 0.000001 0.000000 -0.000002 0.000002 0.000001 -0.000002 0.000001 0.000001 1.195117 -0.210728 14.075803 10.647806 23.773553 65.191430 0.000374 104.192295 -0.000374 -16.889282 -7.088285 29.079828 -12.182126 5.367464 -1.058744 7.918247 -27.751668 -3.100778 0.000002 0.000000 -0.000000 3.528029 10.888366 36.835603 0.497051 -2.095302 26.687146 -0.000001 -0.000002 0.000006 -4.321317 1.650220 38.533486 0.529965 -2.159506 27.573967 0.000001 -0.000001 -0.000000 -2.034773 -0.935303 36.159414 0.255996 -1.524268 19.065676 0.000001 -0.000001 0.000002 -0.772112 -1.673455 26.040132 0.165767 -1.232745 15.316913 -0.000001 0.000003 0.000001 0.000001 0.000000 -0.000003 -0.000000 0.000001 0.000001 0.000001 -0.000000 -0.000001 -0.000001 0.000000 0.000003 -0.000001 0.000001 0.000003 -0.000001 0.000000 0.000003 -0.000001 0.000001 0.000003 -0.000001 0.000001 0.000001 -0.000001 0.000001 0.000001 -0.000001 0.000001 0.000001 -0.000001 0.000001 0.000001 -0.000001 0.000001 0.000001 -0.000001 0.000001 0.000001 -0.000001 0.000001 0.000001 0.000000 -0.000001 0.000000 -0.000001 0.000001 0.000000 
5.700407 112.665062 5.555305 -104.577300 23.851277 6.114102 -0.000000 -0.000001 -0.000000 -27.680487 27.277136 41.693759 34.532190 -1.412947 -7.939104 40.590243 0.817958 -27.866858 -0.000001 -0.000000 0.000000 0.000000 0.000003 0.000000 -40.869690 -7.441353 -19.293891 98.630220 -1.183097 1.105211 10.705012 -3.981369 13.247057 -0.000001 -0.000000 0.000000 -0.000003 0.000000 -0.000000 6.911205 -0.900301 -0.425300 13.736818 -1.625935 -4.897396 13.783813 -1.080464 -4.832963 1.835745 2.787784 -5.232741 1.835749 2.787780 -5.232733 -0.000001 0.000000 0.000000 1.835757 2.787753 -5.232726 1.835808 2.787791 -5.232750 -0.000004 -0.000003 0.000002 -0.000001 0.000000 -0.000001 3.135102 -18.873254 0.224032 52.084786 -23.779263 -9.214799 -0.000512 -98.388322 -0.000509 -29.242096 -13.948197 36.148506 8.408058 -2.257616 14.657852 7.178844 21.567331 2.147300 -0.000003 0.000001 -0.000003 0.853620 5.328564 -25.996637 0.169787 1.401613 -13.813546 0.000001 0.000000 0.000005 1.410821 6.498984 -25.464998 0.169879 1.401954 -13.817115 -0.000001 -0.000001 0.000000 1.963860 8.045395 -22.658046 0.169792 1.401601 -13.813536 -0.000001 -0.000001 -0.000001 1.902139 9.870644 -15.630367 0.167498 1.392241 -13.719344 0.000001 -0.000002 0.000000 -0.000000 -0.000003 -0.000000 -0.000000 -0.000003 -0.000000 -0.000000 -0.000003 0.000000 -0.000000 -0.000004 -0.000001 -0.000000 -0.000006 0.000001 -0.000000 -0.000004 -0.000001 -0.000000 -0.000004 -0.000001 1.557881 -2.588165 14.251155 10.279169 26.210112 64.641156 -0.000135 103.122100 0.000132 -19.293650 -9.132623 29.384375 -12.261006 5.580987 -0.976955 7.918251 -27.751666 -3.100781 0.000002 0.000000 0.000001 3.397548 11.059243 36.877844 0.497050 -2.095303 26.687151 -0.000001 -0.000000 -0.000002 -4.321316 1.650219 38.533486 0.529966 -2.159505 27.573965 0.000001 0.000001 -0.000001 -1.976234 -0.959253 35.775394 0.255979 -1.524266 19.065645 0.000000 -0.000001 -0.000001 -0.652400 -1.807663 25.007682 0.165465 -1.231613 15.302491 0.000002 0.000002 -0.000000 0.000001 -0.000000 -0.000002 0.000000 -0.000001 -0.000002 0.000001 -0.000000 -0.000002 -0.000001 -0.000002 0.000001 -0.000001 -0.000001 0.000002 -0.000001 -0.000002 0.000001 -0.000001 -0.000001 0.000002 -0.000000 0.000001 -0.000000 -0.000000 0.000001 -0.000000 -0.000000 0.000001 -0.000000 -0.000000 0.000001 -0.000000 -0.000000 0.000001 -0.000000 -0.000000 0.000001 -0.000000 -0.000000 0.000001 -0.000000 -0.000001 0.000001 -0.000000 -0.000000 -0.000001 -0.000000 
5.400491 112.760986 5.021919 -104.778134 23.562515 6.672097 -0.000000 -0.000000 0.000000 -22.398354 26.829594 36.468634 27.949211 -0.419330 -6.928716 39.156655 3.421425 -27.791271 0.000001 -0.000000 0.000000 0.000000 -0.000000 -0.000000 -38.956981 -8.201063 -19.868013 95.759088 -1.708713 1.207386 10.792721 -3.698649 13.349803 -0.000000 -0.000001 0.000000 0.000001 0.000000 -0.000000 6.670864 -0.988095 -1.238445 13.252356 -1.913469 -4.663522 13.296887 -1.368452 -4.618285 1.604655 2.732548 -5.308059 1.604650 2.732548 -5.308067 0.000001 -0.000000 -0.000000 1.604611 2.732528 -5.308064 1.604739 2.732582 -5.308074 -0.000002 -0.000003 0.000002 0.000001 -0.000000 -0.000002 3.212337 -19.438044 -0.368385 52.524537 -22.686210 -10.468707 0.000065 -98.974653 0.000071 -28.887015 -12.651947 36.503734 8.016402 -2.839958 14.988239 7.178849 21.567340 2.147298 0.000000 -0.000000 -0.000001 0.811552 5.242682 -26.002559 0.169784 1.401609 -13.813540 -0.000001 -0.000000 -0.000000 1.403444 6.490967 -25.362973 0.169882 1.401950 -13.817110 0.000001 -0.000005 0.000003 1.995940 8.174534 -22.344532 0.169790 1.401606 -13.813538 0.000001 0.000001 -0.000003 1.937331 10.061801 -15.452699 0.167497 1.392245 -13.719351 0.000000 -0.000005 0.000001 0.000000 0.000000 -0.000000 0.000000 0.000000 -0.000000 0.000000 0.000000 0.000001 -0.000000 0.000003 -0.000000 0.000000 0.000002 0.000001 -0.000000 0.000003 -0.000000 0.000000 0.000002 0.000001 1.966954 -4.907450 14.428513 9.964513 28.684240 63.932599 -0.002042 102.126819 0.002006 -21.711045 -11.046159 29.467236 -12.347733 5.814263 -0.887082 7.918249 -27.751672 -3.100785 -0.000000 -0.000000 -0.000001 3.254644 11.245977 36.924501 0.497048 -2.095303 26.687147 -0.000001 -0.000001 0.000001 -4.321317 1.650219 38.533492 0.529961 -2.159505 27.573965 0.000002 -0.000001 0.000003 -1.912846 -0.986429 35.355528 0.255990 -1.524268 19.065638 -0.000002 0.000002 0.000002 -0.529029 -1.958965 23.878654 0.165112 -1.230380 15.286725 -0.000001 -0.000000 -0.000002 0.000002 -0.000001 0.000002 0.000001 -0.000002 0.000002 0.000002 -0.000001 0.000002 0.000001 0.000002 -0.000001 0.000001 0.000003 -0.000001 0.000001 0.000002 -0.000001 0.000001 0.000002 -0.000001 0.000001 0.000001 -0.000000 0.000001 0.000001 -0.000000 0.000001 0.000001 -0.000000 0.000001 0.000001 -0.000000 0.000001 0.000001 -0.000000 0.000001 0.000001 -0.000000 0.000001 0.000001 -0.000000 0.000000 0.000000 0.000000 -0.000000 -0.000000 0.000000 
